<mxfile host="app.diagrams.net" modified="2023-09-01T06:05:44.184Z" agent="Mozilla/5.0 (Windows NT 10.0; Win64; x64) AppleWebKit/537.36 (KHTML, like Gecko) Chrome/116.0.0.0 Safari/537.36" version="21.7.1" etag="rL83KLevsWT9GTo2z0az" type="github">
  <diagram name="Page-1" id="xuScIC2zjoT3SRnZQnPH">
    <mxGraphModel>
      <root>
        <mxCell id="0" />
        <mxCell id="1" parent="0" />
      </root>
    </mxGraphModel>
  </diagram>
</mxfile>
